<mxfile host="app.diagrams.net" modified="2024-04-20T17:40:56.011Z" agent="Mozilla/5.0 (X11; Linux x86_64; rv:109.0) Gecko/20100101 Firefox/115.0" etag="6-sSFAWCsC4btNZw7b-t" version="24.2.7" type="github">
  <diagram name="Page-1" id="ghBPMaWXtcuGt5V0-RNR">
    <mxGraphModel dx="988" dy="530" grid="1" gridSize="10" guides="1" tooltips="1" connect="1" arrows="1" fold="1" page="1" pageScale="1" pageWidth="850" pageHeight="1100" math="0" shadow="0">
      <root>
        <mxCell id="0" />
        <mxCell id="1" parent="0" />
        <mxCell id="qnFcuY7XLDRNSBZMsk60-2" value="" style="endArrow=none;html=1;rounded=0;fillColor=#d5e8d4;strokeColor=#007EFA;" edge="1" parent="1">
          <mxGeometry width="50" height="50" relative="1" as="geometry">
            <mxPoint x="240" y="520" as="sourcePoint" />
            <mxPoint x="640" y="520" as="targetPoint" />
          </mxGeometry>
        </mxCell>
        <mxCell id="qnFcuY7XLDRNSBZMsk60-3" value="&lt;font style=&quot;font-size: 12px;&quot;&gt;home-bills&lt;/font&gt;" style="shape=cylinder3;whiteSpace=wrap;html=1;boundedLbl=1;backgroundOutline=1;size=15;strokeColor=#1c71d8;" vertex="1" parent="1">
          <mxGeometry x="270" y="550" width="70" height="70" as="geometry" />
        </mxCell>
        <mxCell id="qnFcuY7XLDRNSBZMsk60-4" value="real-estate" style="shape=cylinder3;whiteSpace=wrap;html=1;boundedLbl=1;backgroundOutline=1;size=15;strokeColor=#1c71d8;" vertex="1" parent="1">
          <mxGeometry x="410" y="550" width="70" height="70" as="geometry" />
        </mxCell>
        <mxCell id="qnFcuY7XLDRNSBZMsk60-5" value="users" style="shape=cylinder3;whiteSpace=wrap;html=1;boundedLbl=1;backgroundOutline=1;size=15;strokeColor=#1c71d8;" vertex="1" parent="1">
          <mxGeometry x="550" y="550" width="70" height="70" as="geometry" />
        </mxCell>
        <mxCell id="qnFcuY7XLDRNSBZMsk60-6" value="&lt;div style=&quot;font-size: 16px;&quot;&gt;mail-ops&lt;/div&gt;" style="rounded=1;whiteSpace=wrap;html=1;strokeColor=#429C0F;" vertex="1" parent="1">
          <mxGeometry x="170" y="380" width="100" height="50" as="geometry" />
        </mxCell>
        <mxCell id="qnFcuY7XLDRNSBZMsk60-7" value="&lt;div style=&quot;font-size: 16px;&quot;&gt;notification-service&lt;/div&gt;&lt;div&gt;&lt;br&gt;&lt;/div&gt;" style="rounded=1;whiteSpace=wrap;html=1;strokeColor=#429C0F;" vertex="1" parent="1">
          <mxGeometry x="320" y="350" width="110" height="50" as="geometry" />
        </mxCell>
        <mxCell id="qnFcuY7XLDRNSBZMsk60-8" value="&lt;font style=&quot;font-size: 16px;&quot;&gt;home-bills&lt;/font&gt;" style="rounded=1;whiteSpace=wrap;html=1;strokeColor=#429C0F;" vertex="1" parent="1">
          <mxGeometry x="250" y="450" width="110" height="50" as="geometry" />
        </mxCell>
        <mxCell id="qnFcuY7XLDRNSBZMsk60-9" value="&lt;font style=&quot;font-size: 16px;&quot;&gt;real-estate-db-access&lt;/font&gt;" style="rounded=1;whiteSpace=wrap;html=1;strokeColor=#429C0F;" vertex="1" parent="1">
          <mxGeometry x="390" y="450" width="110" height="50" as="geometry" />
        </mxCell>
        <mxCell id="qnFcuY7XLDRNSBZMsk60-14" value="" style="endArrow=none;dashed=1;html=1;dashPattern=1 3;strokeWidth=2;rounded=0;entryX=0.5;entryY=1;entryDx=0;entryDy=0;exitX=0.5;exitY=0;exitDx=0;exitDy=0;exitPerimeter=0;" edge="1" parent="1" source="qnFcuY7XLDRNSBZMsk60-4" target="qnFcuY7XLDRNSBZMsk60-9">
          <mxGeometry width="50" height="50" relative="1" as="geometry">
            <mxPoint x="480" y="460" as="sourcePoint" />
            <mxPoint x="530" y="410" as="targetPoint" />
          </mxGeometry>
        </mxCell>
        <mxCell id="qnFcuY7XLDRNSBZMsk60-15" value="" style="endArrow=none;dashed=1;html=1;dashPattern=1 3;strokeWidth=2;rounded=0;entryX=0.5;entryY=1;entryDx=0;entryDy=0;exitX=0.5;exitY=0;exitDx=0;exitDy=0;exitPerimeter=0;" edge="1" parent="1">
          <mxGeometry width="50" height="50" relative="1" as="geometry">
            <mxPoint x="304.76" y="550" as="sourcePoint" />
            <mxPoint x="304.76" y="500" as="targetPoint" />
          </mxGeometry>
        </mxCell>
        <mxCell id="qnFcuY7XLDRNSBZMsk60-16" value="" style="endArrow=classic;html=1;rounded=0;entryX=0.291;entryY=1.01;entryDx=0;entryDy=0;entryPerimeter=0;exitX=0.5;exitY=0;exitDx=0;exitDy=0;" edge="1" parent="1" source="qnFcuY7XLDRNSBZMsk60-8" target="qnFcuY7XLDRNSBZMsk60-7">
          <mxGeometry width="50" height="50" relative="1" as="geometry">
            <mxPoint x="480" y="460" as="sourcePoint" />
            <mxPoint x="530" y="410" as="targetPoint" />
          </mxGeometry>
        </mxCell>
        <mxCell id="qnFcuY7XLDRNSBZMsk60-17" value="" style="endArrow=classic;html=1;rounded=0;entryX=0.75;entryY=1;entryDx=0;entryDy=0;exitX=0.5;exitY=0;exitDx=0;exitDy=0;strokeWidth=1;" edge="1" parent="1" source="qnFcuY7XLDRNSBZMsk60-9" target="qnFcuY7XLDRNSBZMsk60-7">
          <mxGeometry width="50" height="50" relative="1" as="geometry">
            <mxPoint x="315" y="460" as="sourcePoint" />
            <mxPoint x="362" y="410" as="targetPoint" />
          </mxGeometry>
        </mxCell>
        <mxCell id="qnFcuY7XLDRNSBZMsk60-18" value="" style="endArrow=classic;html=1;rounded=0;entryX=1;entryY=0.5;entryDx=0;entryDy=0;exitX=0;exitY=0.75;exitDx=0;exitDy=0;" edge="1" parent="1" source="qnFcuY7XLDRNSBZMsk60-7" target="qnFcuY7XLDRNSBZMsk60-6">
          <mxGeometry width="50" height="50" relative="1" as="geometry">
            <mxPoint x="325" y="470" as="sourcePoint" />
            <mxPoint x="372" y="420" as="targetPoint" />
          </mxGeometry>
        </mxCell>
        <mxCell id="qnFcuY7XLDRNSBZMsk60-19" value="" style="endArrow=none;html=1;rounded=0;fillColor=#d5e8d4;strokeColor=#55c914;" edge="1" parent="1">
          <mxGeometry width="50" height="50" relative="1" as="geometry">
            <mxPoint x="240" y="320" as="sourcePoint" />
            <mxPoint x="640" y="320" as="targetPoint" />
          </mxGeometry>
        </mxCell>
        <mxCell id="qnFcuY7XLDRNSBZMsk60-20" value="" style="shape=curlyBracket;whiteSpace=wrap;html=1;rounded=1;flipH=1;labelPosition=right;verticalLabelPosition=middle;align=left;verticalAlign=middle;strokeColor=#007efa;" vertex="1" parent="1">
          <mxGeometry x="680" y="530" width="20" height="90" as="geometry" />
        </mxCell>
        <mxCell id="qnFcuY7XLDRNSBZMsk60-21" value="Database" style="text;html=1;align=center;verticalAlign=middle;resizable=0;points=[];autosize=1;strokeColor=none;fillColor=none;" vertex="1" parent="1">
          <mxGeometry x="703" y="560" width="70" height="30" as="geometry" />
        </mxCell>
        <mxCell id="qnFcuY7XLDRNSBZMsk60-22" value="" style="shape=curlyBracket;whiteSpace=wrap;html=1;rounded=1;flipH=1;labelPosition=right;verticalLabelPosition=middle;align=left;verticalAlign=middle;strokeColor=#55c914;" vertex="1" parent="1">
          <mxGeometry x="680" y="330" width="20" height="180" as="geometry" />
        </mxCell>
        <mxCell id="qnFcuY7XLDRNSBZMsk60-23" value="Back End" style="text;html=1;align=center;verticalAlign=middle;resizable=0;points=[];autosize=1;strokeColor=none;fillColor=none;" vertex="1" parent="1">
          <mxGeometry x="703" y="405" width="70" height="30" as="geometry" />
        </mxCell>
      </root>
    </mxGraphModel>
  </diagram>
</mxfile>
